<svg width="117" height="15" viewBox="0 0 117 15" fill="none" xmlns="http://www.w3.org/2000/svg">
<path d="M0.16 14L6.02 2.24H11.22L17.06 14H12.76L11.78 11.86H5.46L4.36 14H0.16ZM6.56 9.1H10.66L8.72 4.84H8.52L6.56 9.1ZM18.4266 14V5.04H21.3266L22.1266 5.44C22.6866 5.33333 23.3599 5.24 24.1466 5.16C24.9466 5.08 25.6932 5.04 26.3866 5.04H27.3866C28.0532 5.04 28.5666 5.13333 28.9266 5.32C29.2866 5.50667 29.5399 5.74 29.6866 6.02C29.8466 6.3 29.9399 6.58667 29.9666 6.88C30.0066 7.16 30.0266 7.4 30.0266 7.6V14H26.3666V8.36C26.3666 7.82667 26.0466 7.56 25.4066 7.56H22.7266C22.4732 7.56 22.3066 7.58667 22.2266 7.64C22.1599 7.68 22.1266 7.8 22.1266 8V14H18.4266ZM42.7128 14.2C42.0595 14.2 41.4861 14.1333 40.9928 14C40.5128 13.8667 40.0528 13.58 39.6128 13.14C39.3461 12.8733 39.0795 12.6067 38.8128 12.34C38.5461 12.0733 38.2795 11.8067 38.0128 11.54C37.7995 11.3133 37.6261 11.14 37.4928 11.02C37.3595 10.8867 37.2261 10.8 37.0928 10.76C36.9728 10.7067 36.7995 10.68 36.5728 10.68C36.2795 10.68 36.1061 10.7067 36.0528 10.76C35.9995 10.8133 35.9728 10.9933 35.9728 11.3V14H32.3328V1.34H35.9728V8.12H36.6128C36.8395 8.12 37.0528 8.02667 37.2528 7.84C37.3728 7.72 37.5528 7.5 37.7928 7.18C38.0461 6.86 38.3195 6.50667 38.6128 6.12C38.9061 5.73333 39.1728 5.38 39.4128 5.06H43.6128L43.2928 5.68C42.9728 6.08 42.5995 6.52 42.1728 7C41.7595 7.48 41.3528 7.92 40.9528 8.32C40.5661 8.72 40.2528 9 40.0128 9.16C40.5328 9.50667 41.0195 9.88 41.4728 10.28C41.9261 10.6667 42.5061 11.0133 43.2128 11.32C43.6795 11.52 44.0728 11.6533 44.3928 11.72C44.7261 11.7733 44.9595 11.8 45.0928 11.8L44.5328 14C44.3995 14.04 44.1728 14.08 43.8528 14.12C43.5461 14.1733 43.1661 14.2 42.7128 14.2ZM48.3177 4.18C46.971 4.18 46.2977 3.60667 46.2977 2.46C46.2977 1.82 46.4643 1.38 46.7977 1.14C47.1443 0.886666 47.651 0.759999 48.3177 0.759999C49.0243 0.759999 49.5377 0.886666 49.8577 1.14C50.191 1.38 50.3577 1.82 50.3577 2.46C50.3577 3.60667 49.6777 4.18 48.3177 4.18ZM46.4777 14V5.04H50.1177V14H46.4777ZM56.2425 14C55.2292 14 54.5358 13.7867 54.1625 13.36C53.7892 12.9333 53.6025 12.2933 53.6025 11.44V7.56H51.9625V5.04H52.8025C53.0292 5.04 53.2092 5 53.3425 4.92C53.4892 4.82667 53.5825 4.66667 53.6225 4.44L54.0025 2.3H57.2825V5.04H60.6225V7.56H57.2825V10.66C57.2825 10.9933 57.3625 11.2133 57.5225 11.32C57.6825 11.4267 57.9225 11.48 58.2425 11.48H60.2425L60.6425 13.8C60.3625 13.84 59.9358 13.8867 59.3625 13.94C58.7892 13.98 58.1625 14 57.4825 14H56.2425ZM79.3784 14.16C78.8557 14.16 78.4024 14.0533 78.0184 13.84C77.6344 13.6267 77.2557 13.3387 76.8824 12.976C76.4771 12.5493 75.9864 12.0587 75.4104 11.504C75.1437 11.2267 74.8717 10.9973 74.5944 10.816C74.3171 10.6347 74.0024 10.496 73.6504 10.4C73.3091 10.304 72.8824 10.256 72.3704 10.256H71.6184V14H69.5064V5.872L69.3464 4.592H71.6184V8.688H72.5144C72.7277 8.688 72.9037 8.66133 73.0424 8.608C73.1811 8.55467 73.3091 8.46933 73.4264 8.352C73.7251 8.05333 74.0664 7.68 74.4504 7.232C74.8344 6.784 75.2077 6.32533 75.5704 5.856C75.9437 5.376 76.2637 4.95467 76.5304 4.592H79.1224L78.4664 5.552C78.1677 5.86133 77.8477 6.19733 77.5064 6.56C77.1651 6.92267 76.8291 7.28 76.4984 7.632C76.1677 7.97333 75.8691 8.27733 75.6024 8.544C75.3357 8.8 75.1384 8.98667 75.0104 9.104C75.2984 9.2 75.5597 9.32267 75.7944 9.472C76.0397 9.62133 76.3384 9.84 76.6904 10.128C76.9571 10.3413 77.2131 10.56 77.4584 10.784C77.7144 11.008 78.0077 11.2747 78.3384 11.584C78.7117 11.9253 79.0637 12.176 79.3944 12.336C79.7251 12.496 80.0024 12.5973 80.2264 12.64C80.4611 12.6827 80.6104 12.704 80.6744 12.704L80.3544 14C80.3224 14.032 80.2264 14.064 80.0664 14.096C79.9064 14.1387 79.6771 14.16 79.3784 14.16ZM83.856 14C83.0454 14 82.4587 13.8133 82.096 13.44C81.7334 13.056 81.552 12.5333 81.552 11.872C81.552 11.1787 81.7387 10.6453 82.112 10.272C82.496 9.89867 83.0774 9.712 83.856 9.712H84.672C85.472 9.712 86.192 9.73333 86.832 9.776C87.472 9.81867 88 9.86133 88.416 9.904V8.848C88.416 8.752 88.4054 8.656 88.384 8.56C88.3627 8.45333 88.2987 8.368 88.192 8.304C88.0854 8.24 87.904 8.208 87.648 8.208H86.848C85.6854 8.208 84.7147 8.22933 83.936 8.272C83.1574 8.304 82.6294 8.336 82.352 8.368L82.176 7.152C82.176 7.00267 82.5814 6.912 83.392 6.88C84.2027 6.848 85.5574 6.832 87.456 6.832H88.256C88.7894 6.832 89.2 6.90667 89.488 7.056C89.776 7.20533 89.9787 7.392 90.096 7.616C90.224 7.84 90.2987 8.06933 90.32 8.304C90.352 8.528 90.368 8.72 90.368 8.88V14H89.056L88.432 13.68C87.984 13.7547 87.4454 13.8293 86.816 13.904C86.1867 13.968 85.4667 14 84.656 14H83.856ZM84.272 12.624H87.936C88.1707 12.624 88.3094 12.6027 88.352 12.56C88.3947 12.5173 88.416 12.384 88.416 12.16V10.928H84.272C83.984 10.928 83.7814 10.9973 83.664 11.136C83.5574 11.2747 83.504 11.4933 83.504 11.792C83.504 12.0907 83.568 12.304 83.696 12.432C83.824 12.56 84.016 12.624 84.272 12.624ZM92.2139 14V6.832H93.5259L94.1339 7.152C94.4112 7.00267 94.7099 6.88533 95.0299 6.8C95.3499 6.71467 95.7552 6.672 96.2459 6.672C97.0246 6.672 97.6539 6.75733 98.1339 6.928C98.6246 7.09867 98.9499 7.22667 99.1099 7.312L98.5499 8.704C98.4219 8.64 98.2086 8.56 97.9099 8.464C97.6219 8.35733 97.2806 8.26133 96.8859 8.176C96.4912 8.09067 96.0592 8.048 95.5899 8.048H95.4139C94.9019 8.048 94.5659 8.14933 94.4059 8.352C94.2566 8.55467 94.1766 8.89067 94.1659 9.36V14H92.2139ZM100.23 14V6.832H101.542L102.182 7.152C102.63 7.06667 103.168 6.992 103.798 6.928C104.427 6.864 105.147 6.832 105.958 6.832H106.758C107.291 6.832 107.702 6.90667 107.99 7.056C108.278 7.20533 108.48 7.392 108.598 7.616C108.726 7.84 108.8 8.06933 108.822 8.304C108.854 8.528 108.87 8.72 108.87 8.88V14H106.918V8.848C106.918 8.42133 106.662 8.208 106.15 8.208H102.662C102.459 8.208 102.326 8.22933 102.262 8.272C102.208 8.304 102.182 8.4 102.182 8.56V14H100.23Z" fill="white"/>
<path d="M115.686 14C115.291 14 115.003 13.92 114.822 13.76C114.64 13.6 114.55 13.3333 114.55 12.96C114.55 12.576 114.635 12.3093 114.806 12.16C114.987 12 115.28 11.92 115.686 11.92C116.091 11.92 116.384 12 116.566 12.16C116.747 12.3093 116.838 12.576 116.838 12.96C116.838 13.3227 116.747 13.5893 116.566 13.76C116.384 13.92 116.091 14 115.686 14Z" fill="#F13024"/>
</svg>
